<?xml-stylesheet type="text/css" href="./style.css" ?>
<svg xmlns="http://www.w3.org/2000/svg" viewBox="0 0 143.57 50.4" style="fill:#ff1493">
<title>lilli</title>
<g id="Layer_2" data-name="Layer 2">
<g id="Layer_1-2" data-name="Layer 1">
<path class="cls-1" d="M28.73,50.4a14.73,14.73,0,0,1-9-2.59A7.31,7.31,0,0,1,14,50.4c-3.46,0-5.9-1.36-5.9-3.81S10.8,42,14.11,42c1.52,0,3,.79,4.76,1.87,1.58-3.24,2.3-8.28,2.73-13.61-3.67,3.82-8.35,7.13-12.74,7.13C3.67,37.37,0,34.06,0,29.59a1.44,1.44,0,1,1,2.88,0c0,3.46,3.24,4.9,6,4.9,4.89,0,9.57-4.18,13-9.36C22.32,11.45,21.6,0,26.28,0c2,0,3.24,1.73,3.24,5.54,0,8.21-1.58,14.91-4.82,20.53-.22,7.49-1.3,15.19-3.39,19.29a13.72,13.72,0,0,0,7.56,2.38c7.93,0,13.4-8.86,18.29-18.72a1.52,1.52,0,0,1,1.3-.79,1.45,1.45,0,0,1,1.37,1.51c0,.21,0,.5-.65,1.73C44.57,40.32,38,50.4,28.73,50.4ZM11,46.59s0,.93,3,.93a4.24,4.24,0,0,0,3.17-1.29,6.87,6.87,0,0,0-3.1-1.37C12.24,44.86,11,46,11,46.59ZM25.35,7.49c-.29,2.88-.44,6.84-.44,10.94A42.53,42.53,0,0,0,26.64,5.54,6,6,0,0,0,26.28,3C26.07,3.38,25.63,4.46,25.35,7.49Z M46.94,15.84c0-.29-.28-.43-.28-1.08a1.48,1.48,0,0,1,1.44-1.44c1.22,0,1.72,1.37,1.72,2.52,0,.94-.28,2.31-1.58,2.31a1.36,1.36,0,0,1-1.44-1.44A5.29,5.29,0,0,1,46.94,15.84ZM70.56,29a1.5,1.5,0,0,1,1.3-.79,1.45,1.45,0,0,1,1.37,1.51c0,.21,0,.5-.65,1.73-3.24,6.19-9.79,18.86-17.14,18.86-7.7,0-8.5-11.09-8.5-17,0-1.3,0-2.52.08-3.82a1.49,1.49,0,0,1,1.51-1.37,1.41,1.41,0,0,1,1.37,1.52c-.08,1.22-.08,2.44-.08,3.67,0,3.1.29,14.11,5.62,14.11S66.89,36.44,70.56,29Z M94,29a1.52,1.52,0,0,1,1.3-.79,1.45,1.45,0,0,1,1.37,1.51c0,.21,0,.5-.65,1.73-3.24,6.19-9.79,18.86-17.14,18.86-8.35,0-8.42-18.43-8.42-25.13,0-13.82.43-25.06,4.1-25.06s3.89,7.42,3.89,10.09c0,7.63-3,16.2-5,19.29,0,5.55,1.37,17.93,5.47,17.93C84.17,47.45,90.36,36.44,94,29ZM73.44,22.54A35.71,35.71,0,0,0,75.6,11.09c0-4.25-.5-6.34-.94-7.35A124.43,124.43,0,0,0,73.44,22.54Z M117.51,29a1.49,1.49,0,0,1,1.29-.79,1.45,1.45,0,0,1,1.37,1.51c0,.21,0,.5-.65,1.73-3.24,6.19-9.79,18.86-17.14,18.86C94,50.33,94,31.9,94,25.2,94,11.38,94.39.14,98.06.14S102,7.56,102,10.23c0,7.63-3,16.2-5,19.29,0,5.55,1.37,17.93,5.47,17.93C107.64,47.45,113.83,36.44,117.51,29Zm-20.6-6.48a35.71,35.71,0,0,0,2.16-11.45c0-4.25-.5-6.34-.93-7.35A123.2,123.2,0,0,0,96.91,22.54Z M117.29,15.84c0-.29-.29-.43-.29-1.08a1.48,1.48,0,0,1,1.44-1.44c1.22,0,1.73,1.37,1.73,2.52,0,.94-.29,2.31-1.59,2.31a1.36,1.36,0,0,1-1.44-1.44A5,5,0,0,1,117.29,15.84ZM140.9,29a1.52,1.52,0,0,1,1.3-.79,1.45,1.45,0,0,1,1.37,1.51c0,.21,0,.5-.65,1.73-3.24,6.19-9.79,18.86-17.14,18.86-7.7,0-8.49-11.09-8.49-17,0-1.3,0-2.52.07-3.82a1.5,1.5,0,0,1,1.51-1.37,1.41,1.41,0,0,1,1.37,1.52c-.07,1.22-.07,2.44-.07,3.67,0,3.1.28,14.11,5.61,14.11S137.23,36.44,140.9,29Z"/>
</g>
</g>
</svg>