<svg xmlns="http://www.w3.org/2000/svg" viewBox="0 0 51.05 49.61"><defs><style>.cls-1{fill:#ff1493;}</style></defs><title>favicon</title><g id="Layer_2" data-name="Layer 2"><g id="Layer_1-2" data-name="Layer 1"><path class="cls-1" d="M50.22,47a3,3,0,0,1-1.84.61A6.18,6.18,0,0,1,47,47.48a1,1,0,0,1-.72-.61c-.44-.72-.94-2.85-1.52-6.41s-1.12-7.63-1.65-12.24Q41.4,7.13,40.46,6.7C39.94,7.85,39.12,10,38,13.21S35.64,20.57,34.2,25.7Q31.83,34,30.6,37.12c-.82,2.08-1.54,3.37-2.16,3.85a8.53,8.53,0,0,1-1.4,1,3.06,3.06,0,0,1-1.41.47,1.58,1.58,0,0,1-.93-.18,2.68,2.68,0,0,1-.51-1.12q-.29-1.08-1.37-6.73c-.72-3.77-1.27-7.16-1.65-10.19l-.43-3q-1.23-9.36-1.66-10.44c-.91.81-1.78,2.63-2.59,5.43s-1.76,6.78-2.81,11.92q-1.52,6-3.67,19.44A2,2,0,0,1,8.93,49a3.48,3.48,0,0,1-1.8.65c-.77,0-1.2-.75-1.3-2.23s-.37-4.71-1-9.65-1.14-9.29-1.62-13A122.09,122.09,0,0,0,.5,9.86,24.28,24.28,0,0,1,0,7.42,2.07,2.07,0,0,1,1,5.65,4.13,4.13,0,0,1,3.31,5C3.7,5,4.1,6.46,4.54,9.43s.88,6.72,1.36,11.23L6.12,23c.19,1.58.41,3.24.65,5Q8.14,39,8.28,41.83q1.44-8.36,3.24-16.77l.65-3.17a53.65,53.65,0,0,1,3.45-11.56q1.88-3.92,4.83-3.92.93,0,2.09,4.86a90.24,90.24,0,0,1,1.8,11.34q.5,4.61,1.29,9a40.66,40.66,0,0,0,1.44,6.12q.43-1.23,1.77-5.4t2.48-7.92A209.38,209.38,0,0,1,38.81,2.88a8,8,0,0,1,1.4-2.2A3.4,3.4,0,0,1,42.62,0q.95,0,2,8.21t1.8,19q2,15.26,3.53,16.63a2.66,2.66,0,0,1,1.08,2C51.05,46.2,50.77,46.57,50.22,47Z"/></g></g></svg>